<svg xmlns="http://www.w3.org/2000/svg" width="127.115" height="19.687" viewBox="0 0 127.115 19.687">
  <g id="Group_2160" data-name="Group 2160" transform="translate(-466.345 -378.552)">
    <g id="Group_2154" data-name="Group 2154" transform="translate(466.345 378.552)">
      <path id="Path_789" data-name="Path 789" d="M483.462,378.551l-6.789,19.686h-4.181l-6.146-19.686h4.824l4.967,16.027,5.467-16.027h1.858" transform="translate(-466.345 -378.551)" fill="#202e36"/>
      <path id="Path_790" data-name="Path 790" d="M536.695,392.1h6.9l-3.359-9.976-3.538,9.976m7.039-13.547,6.753,19.686h-4.859l-1.573-4.693h-7.861l-1.644,4.693h-1.929l7.039-19.686Z" transform="translate(-513.219 -378.552)" fill="#202e36"/>
      <path id="Path_791" data-name="Path 791" d="M629.235,378.551v19.686h-3.68l-10.435-15.023v15.023h-1.464V378.551h3.61l10.506,15.023V378.551h1.464" transform="translate(-570.53 -378.551)" fill="#202e36"/>
      <path id="Path_792" data-name="Path 792" d="M705.229,378.551v1.505H696.7v6.611h7.006v1.446H696.7v8.678h8.524v1.446H691.88V378.551h13.348" transform="translate(-625.856 -378.551)" fill="#202e36"/>
      <path id="Path_793" data-name="Path 793" d="M763.38,378.551v18.211h8.654v1.475H758.663V378.551h4.717" transform="translate(-673.088 -378.551)" fill="#202e36"/>
      <path id="Path_794" data-name="Path 794" d="M825.7,378.551v18.211h8.654v1.475H820.981V378.551H825.7" transform="translate(-717.162 -378.551)" fill="#202e36"/>
    </g>
    <g id="Group_2155" data-name="Group 2155" transform="translate(588.774 378.553)">
      <rect id="Rectangle_847" data-name="Rectangle 847" width="4.687" height="1.462" transform="translate(0 0)" fill="#202e36"/>
      <rect id="Rectangle_848" data-name="Rectangle 848" width="4.687" height="16.903" transform="translate(0 2.732)" fill="#202e36"/>
    </g>
  </g>
</svg>
